# This file uses centimeters as units for non-parametric coordinates.

mtllib cube_mtl.mtl
v 1.894250 -1.056398 0.621427
v 2.710413 -1.056398 0.043605
v 1.894250 -0.056398 0.621427
v 2.710413 -0.056398 0.043605
v 1.316428 -0.056398 -0.194736
v 2.132590 -0.056398 -0.772558
v 1.316428 -1.056398 -0.194736
v 2.132590 -1.056398 -0.772558
vt 0.003205 0.003205
vt 0.996795 0.003205
vt 0.003205 0.996795
vt 0.996795 0.996795
vt 0.003205 0.003205
vt 0.996795 0.003205
vt 0.003205 0.996795
vt 0.996795 0.996795
vt 0.003205 0.003205
vt 0.996795 0.003205
vt 0.003205 0.996795
vt 0.996795 0.996795
vt 0.003205 0.003205
vt 0.996795 0.003205
vt 0.003205 0.996795
vt 0.996795 0.996795
vt 0.003205 0.003205
vt 0.996795 0.003205
vt 0.003205 0.996795
vt 0.996795 0.996795
vt 0.003205 0.003205
vt 0.996795 0.003205
vt 0.003205 0.996795
vt 0.996795 0.996795
vn 0.577822 0.000000 0.816163
vn 0.577822 0.000000 0.816163
vn 0.577822 0.000000 0.816163
vn 0.577822 0.000000 0.816163
vn 0.577822 0.000000 0.816163
vn 0.577822 0.000000 0.816163
vn 0.000000 1.000000 0.000000
vn 0.000000 1.000000 0.000000
vn 0.000000 1.000000 0.000000
vn 0.000000 1.000000 0.000000
vn 0.000000 1.000000 0.000000
vn 0.000000 1.000000 0.000000
vn -0.577822 0.000000 -0.816163
vn -0.577822 0.000000 -0.816163
vn -0.577822 0.000000 -0.816163
vn -0.577822 0.000000 -0.816163
vn -0.577822 0.000000 -0.816163
vn -0.577822 0.000000 -0.816163
vn 0.000000 -1.000000 0.000000
vn 0.000000 -1.000000 0.000000
vn 0.000000 -1.000000 0.000000
vn 0.000000 -1.000000 0.000000
vn 0.000000 -1.000000 0.000000
vn 0.000000 -1.000000 0.000000
vn 0.816163 0.000000 -0.577822
vn 0.816163 0.000000 -0.577822
vn 0.816163 0.000000 -0.577822
vn 0.816163 0.000000 -0.577822
vn 0.816163 0.000000 -0.577822
vn 0.816163 0.000000 -0.577822
vn -0.816163 0.000000 0.577822
vn -0.816163 0.000000 0.577822
vn -0.816163 0.000000 0.577822
vn -0.816163 0.000000 0.577822
vn -0.816163 0.000000 0.577822
vn -0.816163 0.000000 0.577822
s off
usemtl cube_mtl:phong1SG
f 1/1/1 2/2/2 3/3/3
f 3/3/4 2/2/5 4/4/6
f 3/5/7 4/6/8 5/7/9
f 5/7/10 4/6/11 6/8/12
f 5/9/13 6/10/14 7/11/15
f 7/11/16 6/10/17 8/12/18
f 7/13/19 8/14/20 1/15/21
f 1/15/22 8/14/23 2/16/24
f 2/17/25 8/18/26 4/19/27
f 4/19/28 8/18/29 6/20/30
f 7/21/31 1/22/32 5/23/33
f 5/23/34 1/22/35 3/24/36
