# This file uses centimeters as units for non-parametric coordinates.

mtllib Floor.mtl
v -9.397633 -1.052938 9.397633
v -4.698818 -1.052938 9.397633
v 0.000000 -1.052938 9.397633
v 4.698818 -1.052938 9.397633
v 9.397633 -1.052938 9.397633
v -9.397633 -1.052938 4.698818
v -4.698818 -1.052938 4.698818
v 0.000000 -1.052938 4.698818
v 4.698818 -1.052938 4.698818
v 9.397633 -1.052938 4.698818
v -9.397633 -1.052938 0.000000
v -4.698818 -1.052938 0.000000
v 0.000000 -1.052938 0.000000
v 4.698818 -1.052938 0.000000
v 9.397633 -1.052938 0.000000
v -9.397633 -1.052938 -4.698818
v -4.698818 -1.052938 -4.698818
v 0.000000 -1.052938 -4.698818
v 4.698818 -1.052938 -4.698818
v 9.397633 -1.052938 -4.698818
v -9.397633 -1.052938 -9.397633
v -4.698818 -1.052938 -9.397633
v 0.000000 -1.052938 -9.397633
v 4.698818 -1.052938 -9.397633
v 9.397633 -1.052938 -9.397633
vt 0.005494 0.005495
vt 0.994506 0.005495
vt 0.005494 0.994506
vt 0.994506 0.994506
vt 0.005494 0.005495
vt 0.994506 0.005495
vt 0.005494 0.994506
vt 0.994506 0.994506
vt 0.005494 0.005495
vt 0.994506 0.005495
vt 0.005494 0.994506
vt 0.994506 0.994506
vt 0.005494 0.005495
vt 0.994506 0.005495
vt 0.005494 0.994506
vt 0.994506 0.994506
vt 0.005494 0.005495
vt 0.994506 0.005495
vt 0.005494 0.994506
vt 0.994506 0.994506
vt 0.005494 0.005495
vt 0.994506 0.005495
vt 0.005494 0.994506
vt 0.994506 0.994506
vt 0.005494 0.005495
vt 0.994506 0.005495
vt 0.005494 0.994506
vt 0.994506 0.994506
vt 0.005494 0.005495
vt 0.994506 0.005495
vt 0.005494 0.994506
vt 0.994506 0.994506
vt 0.005494 0.005495
vt 0.994506 0.005495
vt 0.005494 0.994506
vt 0.994506 0.994506
vt 0.005494 0.005495
vt 0.994506 0.005495
vt 0.005494 0.994506
vt 0.994506 0.994506
vt 0.005494 0.005495
vt 0.994506 0.005495
vt 0.005494 0.994506
vt 0.994506 0.994506
vt 0.005494 0.005495
vt 0.994506 0.005495
vt 0.005494 0.994506
vt 0.994506 0.994506
vt 0.005494 0.005494
vt 0.994506 0.005494
vt 0.005494 0.994506
vt 0.994506 0.994506
vt 0.005494 0.005494
vt 0.994506 0.005494
vt 0.005494 0.994506
vt 0.994506 0.994506
vt 0.005494 0.005494
vt 0.994506 0.005494
vt 0.005494 0.994506
vt 0.994506 0.994506
vt 0.005494 0.005494
vt 0.994506 0.005494
vt 0.005494 0.994506
vt 0.994506 0.994506
vn 0.000000 1.000000 0.000000
vn 0.000000 1.000000 0.000000
vn 0.000000 1.000000 0.000000
vn 0.000000 1.000000 0.000000
vn 0.000000 1.000000 0.000000
vn 0.000000 1.000000 0.000000
vn 0.000000 1.000000 0.000000
vn 0.000000 1.000000 0.000000
vn 0.000000 1.000000 0.000000
vn 0.000000 1.000000 0.000000
vn 0.000000 1.000000 0.000000
vn 0.000000 1.000000 0.000000
vn 0.000000 1.000000 0.000000
vn 0.000000 1.000000 0.000000
vn 0.000000 1.000000 0.000000
vn 0.000000 1.000000 0.000000
vn 0.000000 1.000000 0.000000
vn 0.000000 1.000000 0.000000
vn 0.000000 1.000000 0.000000
vn 0.000000 1.000000 0.000000
vn 0.000000 1.000000 0.000000
vn 0.000000 1.000000 0.000000
vn 0.000000 1.000000 0.000000
vn 0.000000 1.000000 0.000000
vn 0.000000 1.000000 0.000000
vn 0.000000 1.000000 0.000000
vn 0.000000 1.000000 0.000000
vn 0.000000 1.000000 0.000000
vn 0.000000 1.000000 0.000000
vn 0.000000 1.000000 0.000000
vn 0.000000 1.000000 0.000000
vn 0.000000 1.000000 0.000000
vn 0.000000 1.000000 0.000000
vn 0.000000 1.000000 0.000000
vn 0.000000 1.000000 0.000000
vn 0.000000 1.000000 0.000000
vn 0.000000 1.000000 0.000000
vn 0.000000 1.000000 0.000000
vn 0.000000 1.000000 0.000000
vn 0.000000 1.000000 0.000000
vn 0.000000 1.000000 0.000000
vn 0.000000 1.000000 0.000000
vn 0.000000 1.000000 0.000000
vn 0.000000 1.000000 0.000000
vn 0.000000 1.000000 0.000000
vn 0.000000 1.000000 0.000000
vn 0.000000 1.000000 0.000000
vn 0.000000 1.000000 0.000000
vn 0.000000 1.000000 0.000000
vn 0.000000 1.000000 0.000000
vn 0.000000 1.000000 0.000000
vn 0.000000 1.000000 0.000000
vn 0.000000 1.000000 0.000000
vn 0.000000 1.000000 0.000000
vn 0.000000 1.000000 0.000000
vn 0.000000 1.000000 0.000000
vn 0.000000 1.000000 0.000000
vn 0.000000 1.000000 0.000000
vn 0.000000 1.000000 0.000000
vn 0.000000 1.000000 0.000000
vn 0.000000 1.000000 0.000000
vn 0.000000 1.000000 0.000000
vn 0.000000 1.000000 0.000000
vn 0.000000 1.000000 0.000000
vn 0.000000 1.000000 0.000000
vn 0.000000 1.000000 0.000000
vn 0.000000 1.000000 0.000000
vn 0.000000 1.000000 0.000000
vn 0.000000 1.000000 0.000000
vn 0.000000 1.000000 0.000000
vn 0.000000 1.000000 0.000000
vn 0.000000 1.000000 0.000000
vn 0.000000 1.000000 0.000000
vn 0.000000 1.000000 0.000000
vn 0.000000 1.000000 0.000000
vn 0.000000 1.000000 0.000000
vn 0.000000 1.000000 0.000000
vn 0.000000 1.000000 0.000000
vn 0.000000 1.000000 0.000000
vn 0.000000 1.000000 0.000000
vn 0.000000 1.000000 0.000000
vn 0.000000 1.000000 0.000000
vn 0.000000 1.000000 0.000000
vn 0.000000 1.000000 0.000000
vn 0.000000 1.000000 0.000000
vn 0.000000 1.000000 0.000000
vn 0.000000 1.000000 0.000000
vn 0.000000 1.000000 0.000000
vn 0.000000 1.000000 0.000000
vn 0.000000 1.000000 0.000000
vn 0.000000 1.000000 0.000000
vn 0.000000 1.000000 0.000000
vn 0.000000 1.000000 0.000000
vn 0.000000 1.000000 0.000000
vn 0.000000 1.000000 0.000000
vn 0.000000 1.000000 0.000000
s off
f 1/1/1 2/2/2 6/3/3
f 6/3/4 2/2/5 7/4/6
f 2/5/7 3/6/8 7/7/9
f 7/7/10 3/6/11 8/8/12
f 3/9/13 4/10/14 8/11/15
f 8/11/16 4/10/17 9/12/18
f 4/13/19 5/14/20 9/15/21
f 9/15/22 5/14/23 10/16/24
f 6/17/25 7/18/26 11/19/27
f 11/19/28 7/18/29 12/20/30
f 7/21/31 8/22/32 12/23/33
f 12/23/34 8/22/35 13/24/36
f 8/25/37 9/26/38 13/27/39
f 13/27/40 9/26/41 14/28/42
f 9/29/43 10/30/44 14/31/45
f 14/31/46 10/30/47 15/32/48
f 11/33/49 12/34/50 16/35/51
f 16/35/52 12/34/53 17/36/54
f 12/37/55 13/38/56 17/39/57
f 17/39/58 13/38/59 18/40/60
f 13/41/61 14/42/62 18/43/63
f 18/43/64 14/42/65 19/44/66
f 14/45/67 15/46/68 19/47/69
f 19/47/70 15/46/71 20/48/72
f 16/49/73 17/50/74 21/51/75
f 21/51/76 17/50/77 22/52/78
f 17/53/79 18/54/80 22/55/81
f 22/55/82 18/54/83 23/56/84
f 18/57/85 19/58/86 23/59/87
f 23/59/88 19/58/89 24/60/90
f 19/61/91 20/62/92 24/63/93
f 24/63/94 20/62/95 25/64/96
